Coordinates
version=1
nRows=60
nColumns=12
inDegrees=yes

Units are S.I. units (second, meters, Newtons, ...)
Angles are in degrees

endheader
time	SC_y	SC_z	SC_x	AC_y	AC_z	AC_x	GH_y	GH_z	GH_yy	EL_x	PS_y
       0.0              -50.47         -1.622          7.101          54.78         -3.839         -16.57          88.36           64.2          31.98          135.4          6.679
   0.04109              -50.47         -1.621          7.105          54.78         -3.839         -16.57          88.34          64.19          31.99          135.4          6.682
   0.08217              -50.46         -1.621          7.109          54.78         -3.838         -16.56          88.33          64.18          32.01          135.4          6.685
    0.1233              -50.46          -1.62          7.114          54.78         -3.838         -16.56          88.32          64.18          32.02          135.4          6.688
    0.1643              -50.45         -1.619          7.118          54.78         -3.837         -16.55           88.3          64.17          32.03          135.4          6.692
    0.2054              -50.45         -1.618          7.123          54.78         -3.836         -16.55          88.28          64.16          32.05          135.4          6.695
    0.2465              -50.44         -1.617          7.129          54.78         -3.836         -16.54          88.27          64.15          32.07          135.4          6.699
    0.2876              -50.44         -1.616          7.135          54.78         -3.835         -16.54          88.25          64.13          32.08          135.4          6.703
    0.3287              -50.43         -1.615          7.141          54.78         -3.834         -16.53          88.23          64.12           32.1          135.4          6.707
    0.3698              -50.43         -1.614          7.148          54.78         -3.833         -16.52           88.2          64.11          32.12          135.4          6.712
    0.4109              -50.42         -1.612          7.155          54.78         -3.832         -16.52          88.18          64.09          32.14          135.4          6.717
    0.4519              -50.41         -1.611          7.163          54.78         -3.831         -16.51          88.16          64.08          32.17          135.4          6.722
     0.493               -50.4          -1.61          7.171          54.78          -3.83          -16.5          88.13          64.06          32.19          135.4          6.728
    0.5341              -50.39         -1.608           7.18          54.78         -3.829         -16.49           88.1          64.05          32.22          135.4          6.734
    0.5752              -50.38         -1.606           7.19          54.78         -3.828         -16.48          88.07          64.03          32.25          135.4          6.741
    0.6163              -50.37         -1.604            7.2          54.78         -3.827         -16.47          88.03          64.01          32.28          135.4          6.748
    0.6574              -50.36         -1.602          7.212          54.78         -3.825         -16.46          87.99          63.98          32.31          135.4          6.756
    0.6985              -50.35           -1.6          7.224          54.78         -3.824         -16.45          87.95          63.96          32.35          135.4          6.765
    0.7396              -50.34         -1.598          7.238          54.78         -3.822         -16.43          87.91          63.93          32.39          135.4          6.774
    0.7806              -50.32         -1.595          7.253          54.78          -3.82         -16.42          87.86           63.9          32.43          135.4          6.785
    0.8217               -50.3         -1.592          7.269          54.78         -3.818          -16.4          87.81          63.87          32.48          135.4          6.796
    0.8628              -50.29         -1.589          7.288          54.78         -3.815         -16.38          87.75          63.83          32.54          135.4          6.809
    0.9039              -50.27         -1.585          7.308          54.78         -3.813         -16.36          87.68          63.79           32.6          135.4          6.822
     0.945              -50.25         -1.581           7.33          54.78          -3.81         -16.34          87.61          63.75          32.66          135.4          6.838
    0.9861              -50.22         -1.577          7.354          54.79         -3.807         -16.32          87.53           63.7          32.74          135.4          6.855
     1.027              -50.19         -1.572          7.382          54.79         -3.803         -16.29          87.44          63.65          32.82          135.4          6.874
     1.068              -50.16         -1.566          7.413          54.79         -3.799         -16.26          87.34          63.59          32.91          135.4          6.895
     1.109              -50.13          -1.56          7.447          54.79         -3.795         -16.23          87.22          63.52          33.01          135.4          6.919
      1.15              -50.09         -1.553          7.486          54.79          -3.79         -16.19           87.1          63.44          33.13          135.4          6.946
     1.192              -50.05         -1.545          7.531          54.79         -3.784         -16.14          86.95          63.36          33.26          135.3          6.977
     1.233               -50.0         -1.536          7.581           54.8         -3.778         -16.09          86.79          63.26          33.41          135.3          7.012
     1.274              -49.94         -1.526           7.64           54.8          -3.77         -16.03           86.6          63.14          33.58          135.3          7.052
     1.315              -49.87         -1.514          7.707           54.8         -3.762         -15.97          86.38          63.01          33.78          135.3          7.099
     1.356              -49.79           -1.5          7.785           54.8         -3.752         -15.89          86.12          62.86          34.02          135.3          7.152
     1.397               -49.7         -1.484          7.876          54.81          -3.74          -15.8          85.82          62.68          34.29          135.3          7.216
     1.438               -49.6         -1.464          7.984          54.81         -3.727         -15.69          85.47          62.47          34.61          135.3           7.29
     1.479              -49.47         -1.442          8.112          54.82          -3.71         -15.56          85.05          62.21          34.99          135.3          7.379
      1.52              -49.32         -1.414          8.265          54.83         -3.691         -15.41          84.55          61.91          35.44          135.3          7.485
     1.561              -49.14         -1.381           8.45          54.83         -3.667         -15.22          83.94          61.55           36.0          135.3          7.613
     1.602              -48.91         -1.341          8.677          54.84         -3.638          -15.0           83.2           61.1          36.67          135.2           7.77
     1.643              -48.63         -1.291          8.957          54.85         -3.602         -14.72          82.29          60.55           37.5          135.2          7.963
     1.685              -48.29         -1.228          9.305          54.87         -3.558         -14.37          81.15          59.87          38.54          135.2          8.204
     1.726              -47.85          -1.15          9.745          54.89         -3.502         -13.93          79.71           59.0          39.85          135.2          8.508
     1.767               -47.3          -1.05           10.3          54.91          -3.43         -13.38          77.88          57.91          41.51          135.1          8.895
     1.808              -46.59        -0.9225          11.02          54.94         -3.339         -12.66          75.55           56.5          43.63          135.0          9.389
     1.849              -45.69        -0.7586          11.94          54.98         -3.222         -11.75          72.55           54.7          46.36          135.0          10.02
      1.89              -44.53        -0.5494          13.11          55.03         -3.072         -10.58          68.71           52.4          49.85          134.9          10.83
     1.931              -43.07        -0.2863          14.58           55.1         -2.884          -9.11          63.89           49.5          54.23          134.7          11.85
     1.972              -41.29         0.0344          16.38          55.17         -2.655         -7.318          58.02          45.97          59.57          134.6           13.1
     2.013              -39.23         0.4061          18.46          55.26         -2.389         -5.242          51.22          41.88          65.76          134.4          14.53
     2.054               -37.0         0.8085          20.71          55.36         -2.101         -2.994          43.84          37.45          72.47          134.2          16.09
     2.095              -34.77          1.211          22.96          55.46         -1.813        -0.7463          36.47          33.02          79.17          134.0          17.65
     2.136              -32.71          1.583          25.05          55.54         -1.547           1.33          29.67          28.93          85.36          133.8          19.09
     2.178              -30.93          1.903          26.84          55.62         -1.318          3.121           23.8           25.4           90.7          133.7          20.33
     2.219              -29.47          2.166          28.31          55.68          -1.13          4.591          18.98          22.51          95.09          133.5          21.35
      2.26              -28.31          2.376          29.49          55.74        -0.9802           5.76          15.14          20.21          98.57          133.4          22.16
     2.301              -27.41           2.54           30.4          55.77         -0.863          6.675          12.14           18.4          101.3          133.4           22.8
     2.342               -26.7          2.667          31.12          55.81        -0.7717          7.388          9.806           17.0          103.4          133.3          23.29
     2.383              -26.15          2.767          31.68          55.83        -0.7004          7.945          7.979           15.9          105.1          133.2          23.68
     2.424              -25.71          2.845          32.12          55.85        -0.6443          8.383          6.542          15.04          106.4          133.2          23.98
